# xmcd
#
# Track frame offsets:
#   150
#   25017
#   55792
#   74797
#   92648
#   112444
#   130056
#   153669
#   175989
#   189283
#   208968
#   230908
#   253228
#   271520
#   287204
#   309765
#
# Disc length: 4353 seconds
#
# Revision: 0
# Processed by: cddbd v1.5.2PL0 Copyright (c) Steve Scherf et al.
# Submitted via: uFREEDB 1.6.2
#
DISCID=f110ff10
DTITLE=i8i99 - klhku
DYEAR=1900
DGENRE=Dance
TTITLE0=gfjgry6y6y6y
TTITLE1=y7y7y7
TTITLE2=y8y8y8j8u
TTITLE3=u9i9i
TTITLE4=oo8686
TTITLE5=6346n56
TTITLE6=9hbdfd
TTITLE7=hhtrr
TTITLE8=ey763
TTITLE9=qwhj9
TTITLE10=xd90
TTITLE11=a34h
TTITLE12=dreye
TTITLE13=ujy867o
TTITLE14=luyotuwug
TTITLE15=nghjdj
EXTD=
EXTT0=
EXTT1=
EXTT2=
EXTT3=
EXTT4=
EXTT5=
EXTT6=
EXTT7=
EXTT8=
EXTT9=
EXTT10=
EXTT11=
EXTT12=
EXTT13=
EXTT14=
EXTT15=
PLAYORDER=
